<?xml version="1.0" encoding="UTF-8"?> <!-- Generator: Adobe Illustrator 19.0.0, SVG Export Plug-In . SVG Version: 6.00 Build 0) --> <svg xmlns="http://www.w3.org/2000/svg" xmlns:xlink="http://www.w3.org/1999/xlink" id="Capa_1" x="0px" y="0px" viewBox="0 0 480 480" style="enable-background:new 0 0 480 480;" xml:space="preserve"> <g> <g> <rect x="248" y="64" width="16" height="16"></rect> </g> </g> <g> <g> <rect x="216" y="64" width="16" height="16"></rect> </g> </g> <g> <g> <rect x="184" y="64" width="16" height="16"></rect> </g> </g> <g> <g> <rect x="280" y="64" width="16" height="16"></rect> </g> </g> <g> <g> <rect x="312" y="64" width="16" height="16"></rect> </g> </g> <g> <g> <path d="M328,96H184c-4.418,0-8,3.582-8,8v112c0,2.904,1.574,5.581,4.112,6.992l72,40c2.418,1.344,5.358,1.344,7.776,0l72-40 c2.538-1.411,4.112-4.088,4.112-6.992V104C336,99.582,332.418,96,328,96z M248,242.4l-56-31.12V176h56V242.4z M248,160h-56v-48h56 V160z M320,211.288L264,242.4V176h56V211.288z M320,160h-56v-48h56V160z"></path> </g> </g> <g> <g> <rect x="384" y="384" width="16" height="16"></rect> </g> </g> <g> <g> <rect x="352" y="384" width="16" height="16"></rect> </g> </g> <g> <g> <rect x="320" y="384" width="16" height="16"></rect> </g> </g> <g> <g> <rect x="384" y="280" width="16" height="16"></rect> </g> </g> <g> <g> <rect x="352" y="280" width="16" height="16"></rect> </g> </g> <g> <g> <rect x="320" y="280" width="16" height="16"></rect> </g> </g> <g> <g> <path d="M424,224c4.418,0,8-3.582,8-8v-64c0-4.418-3.582-8-8-8h-56V40c0-4.418-3.582-8-8-8H152c-4.418,0-8,3.582-8,8v104H88 c-4.418,0-8,3.582-8,8v64c0,4.418,3.582,8,8,8h24v24H88c-4.418,0-8,3.582-8,8v64c0,4.418,3.582,8,8,8h24v24H88 c-4.418,0-8,3.582-8,8v64c0,4.418,3.582,8,8,8h24v40c0,4.418,3.582,8,8,8h32c3.032,0.001,5.805-1.712,7.16-4.424L180.944,432 h150.112l21.784,43.576c1.355,2.712,4.128,4.425,7.16,4.424h32c4.418,0,8-3.582,8-8v-40h24c4.418,0,8-3.582,8-8v-64 c0-4.418-3.582-8-8-8h-24v-24h24c4.418,0,8-3.582,8-8v-64c0-4.418-3.582-8-8-8h-24v-24H424z M363.792,247.048 c2.593-1.396,4.209-4.103,4.208-7.048v-16h16v24h-21.976L363.792,247.048z M160,48h192v187.2l-96,51.712L160,235.2V48z M148.208,247.048l1.768,0.952H128v-24h16v16C143.999,242.945,145.615,245.652,148.208,247.048z M96,208v-48h48v48H96z M147.056,464H128v-32h35.056L147.056,464z M384,464h-19.056l-16-32H384V464z M416,368v48H96v-48H416z M128,352v-24h256v24H128z M416,264v48H96v-48h83.688l72.52,39.048c2.367,1.274,5.217,1.274,7.584,0L332.312,264H416z M368,208v-48h48v48H368z"></path> </g> </g> <g> <g> <rect x="384" y="176" width="16" height="16"></rect> </g> </g> <g> <g> <path d="M368,0H256v16h112c8.837,0,16,7.163,16,16v24h16V32C400,14.327,385.673,0,368,0z"></path> </g> </g> <g> <g> <rect x="224" width="16" height="16"></rect> </g> </g> <g> <g> <rect x="48" y="224" width="16" height="152"></rect> </g> </g> <g> <g> <rect x="48" y="392" width="16" height="16"></rect> </g> </g> <g> </g> <g> </g> <g> </g> <g> </g> <g> </g> <g> </g> <g> </g> <g> </g> <g> </g> <g> </g> <g> </g> <g> </g> <g> </g> <g> </g> <g> </g> </svg> 