<?xml version="1.0" encoding="UTF-8"?> <!-- Generator: Adobe Illustrator 19.0.0, SVG Export Plug-In . SVG Version: 6.00 Build 0) --> <svg xmlns="http://www.w3.org/2000/svg" xmlns:xlink="http://www.w3.org/1999/xlink" id="Capa_1" x="0px" y="0px" viewBox="0 0 480 480" style="enable-background:new 0 0 480 480;" xml:space="preserve"> <g> <g> <path d="M350.627,151.901c-4.418-12.497-18.131-19.046-30.627-14.627s-19.046,18.131-14.627,30.627 c2.416,6.835,7.793,12.211,14.627,14.627V200h16v-17.472C348.497,178.11,355.046,164.397,350.627,151.901z M328,168 c-4.418,0-8-3.582-8-8s3.582-8,8-8s8,3.582,8,8S332.418,168,328,168z"></path> </g> </g> <g> <g> <path d="M432,128h-8v-24c0-13.255-10.745-24-24-24h-8V64c0-35.346-28.654-64-64-64c-35.346,0-64,28.654-64,64v16h-8 c-13.255,0-24,10.745-24,24v24H48c-17.673,0-32,14.327-32,32v256c0,17.673,14.327,32,32,32h384c17.673,0,32-14.327,32-32V160 C464,142.327,449.673,128,432,128z M280,64c0-26.51,21.49-48,48-48c26.51,0,48,21.49,48,48v16h-96V64z M248,128h24v80h-24V128z M248,224h32c4.418,0,8-3.582,8-8v-96c0-4.418-3.582-8-8-8h-32v-8c0-4.418,3.582-8,8-8h144c4.418,0,8,3.582,8,8v8h-32 c-4.418,0-8,3.582-8,8v96c0,4.418,3.582,8,8,8h32v8c0,4.418-3.582,8-8,8H256c-4.418,0-8-3.582-8-8V224z M408,128v80h-24v-80H408z M448,416c0,8.837-7.163,16-16,16H48c-8.837,0-16-7.163-16-16V160c0-8.837,7.163-16,16-16h184v88c0,13.255,10.745,24,24,24h144 c13.255,0,24-10.745,24-24v-88h8c8.837,0,16,7.163,16,16V416z"></path> </g> </g> <g> <g> <path d="M160,168H64c-4.418,0-8,3.582-8,8v64c0,4.418,3.582,8,8,8h96c4.418,0,8-3.582,8-8v-64C168,171.582,164.418,168,160,168z M72,184h16v16H72V184z M152,232h-16v-16h16V232z M152,200h-24c-4.418,0-8,3.582-8,8v24H72v-16h24c4.418,0,8-3.582,8-8v-24h48V200 z"></path> </g> </g> <g> <g> <path d="M408.154,336.072c-6.955-5.254-15.437-8.089-24.154-8.072v16c13.255,0,24,10.745,24,24s-10.745,24-24,24 c-4.784,0.012-9.456-1.445-13.384-4.176c0.344-0.592,0.6-1.224,0.904-1.824c0.681-1.298,1.287-2.633,1.816-4 c0.612-1.589,1.12-3.217,1.52-4.872c0.168-0.736,0.312-1.464,0.448-2.208c0.437-2.281,0.669-4.597,0.696-6.92 c0.038-3.949-0.612-7.874-1.92-11.6c-0.28-0.912-0.496-1.848-0.848-2.744c-0.686-1.685-1.488-3.321-2.4-4.896 c-0.28-0.496-0.512-1-0.8-1.48c-1.042-1.682-2.205-3.286-3.48-4.8c-0.2-0.24-0.336-0.512-0.544-0.744h-0.04 c-14.495-16.671-39.76-18.436-56.431-3.941s-18.436,39.76-3.941,56.431c13.83,15.906,37.629,18.352,54.404,5.59 c17.602,13.297,42.652,9.807,55.949-7.795C429.246,374.418,425.756,349.369,408.154,336.072z M359.472,373.008 c-0.056,0.24-0.16,0.456-0.224,0.696c-0.95,3.69-2.75,7.106-5.256,9.976c-0.04,0-0.048,0.096-0.08,0.144 c-8.682,9.946-23.782,10.97-33.728,2.289c-5.228-4.563-8.215-11.173-8.184-18.113c-0.051-13.202,10.61-23.945,23.811-23.996 c6.978-0.027,13.619,2.996,18.181,8.276c2.499,2.864,4.296,6.272,5.248,9.952c0.064,0.248,0.176,0.48,0.232,0.728 C360.197,366.27,360.197,369.698,359.472,373.008z"></path> </g> </g> <g> <g> <rect x="56" y="296" width="16" height="16"></rect> </g> </g> <g> <g> <rect x="56" y="360" width="16" height="16"></rect> </g> </g> <g> <g> <rect x="88" y="296" width="16" height="16"></rect> </g> </g> <g> <g> <rect x="120" y="296" width="16" height="16"></rect> </g> </g> <g> <g> <rect x="152" y="296" width="16" height="16"></rect> </g> </g> <g> <g> <rect x="184" y="296" width="16" height="16"></rect> </g> </g> <g> <g> <rect x="216" y="296" width="16" height="16"></rect> </g> </g> <g> <g> <rect x="248" y="296" width="16" height="16"></rect> </g> </g> <g> <g> <rect x="88" y="360" width="56" height="16"></rect> </g> </g> <g> <g> <rect x="56" y="392" width="88" height="16"></rect> </g> </g> <g> <g> <rect x="176" y="360" width="16" height="16"></rect> </g> </g> <g> <g> <rect x="208" y="360" width="56" height="16"></rect> </g> </g> <g> <g> <rect x="176" y="392" width="88" height="16"></rect> </g> </g> <g> <g> <rect x="328" y="360" width="16" height="16"></rect> </g> </g> <g> <g> <rect x="208" y="464" width="192" height="16"></rect> </g> </g> <g> <g> <rect x="416" y="464" width="16" height="16"></rect> </g> </g> <g> <g> <rect x="72" y="96" width="120" height="16"></rect> </g> </g> <g> <g> <rect x="40" y="96" width="16" height="16"></rect> </g> </g> <g> </g> <g> </g> <g> </g> <g> </g> <g> </g> <g> </g> <g> </g> <g> </g> <g> </g> <g> </g> <g> </g> <g> </g> <g> </g> <g> </g> <g> </g> </svg> 