<?xml version="1.0" encoding="UTF-8"?> <!-- Generator: Adobe Illustrator 19.0.0, SVG Export Plug-In . SVG Version: 6.00 Build 0) --> <svg xmlns="http://www.w3.org/2000/svg" xmlns:xlink="http://www.w3.org/1999/xlink" id="Capa_1" x="0px" y="0px" viewBox="0 0 480 480" style="enable-background:new 0 0 480 480;" xml:space="preserve"> <g> <g> <path d="M112,392c-2.674,0-5.172,1.335-6.656,3.56L75.72,440H62.864c-4.449-17.072-21.896-27.305-38.968-22.855 S-3.408,439.04,1.041,456.112C4.712,470.199,17.443,480.022,32,480c14.547-0.055,27.227-9.915,30.864-24H80 c2.674,0,5.172-1.335,6.656-3.56L116.28,408H136v-16H112z M32,464c-8.837,0-16-7.163-16-16s7.163-16,16-16s16,7.163,16,16 S40.837,464,32,464z"></path> </g> </g> <g> <g> <path d="M108.944,216L87.2,172.424c-1.362-2.725-4.153-4.441-7.2-4.424H62.864c-4.449-17.072-21.896-27.305-38.968-22.855 S-3.408,167.04,1.041,184.112C4.712,198.199,17.443,208.022,32,208c14.547-0.055,27.227-9.915,30.864-24h12.192l21.784,43.576 c1.355,2.712,4.128,4.425,7.16,4.424h24v-16H108.944z M32,192c-8.837,0-16-7.163-16-16s7.163-16,16-16s16,7.163,16,16 S40.837,192,32,192z"></path> </g> </g> <g> <g> <path d="M312,0H184c-17.673,0-32,14.327-32,32v128c0,17.673,14.327,32,32,32v24c0,4.418,3.582,8,8,8h8v44.688l-13.656,13.656 c-3.123,3.124-3.123,8.188,0,11.312L196.688,304l-10.344,10.344c-3.123,3.124-3.123,8.188,0,11.312L200,339.312v33.376 l-13.656,13.656c-3.123,3.124-3.123,8.188,0,11.312L196.688,408l-10.344,10.344c-3.123,3.124-3.123,8.188,0,11.312l48,48 c3.124,3.123,8.188,3.123,11.312,0l48-48c1.5-1.5,2.344-3.534,2.344-5.656V224h8c4.418,0,8-3.582,8-8v-24 c17.673,0,32-14.327,32-32V32C344,14.327,329.673,0,312,0z M280,420.688l-40,40L203.312,424l10.344-10.344 c3.123-3.124,3.123-8.188,0-11.312L203.312,392l10.344-10.344c1.5-1.5,2.344-3.534,2.344-5.656v-40 c0-2.122-0.844-4.156-2.344-5.656L203.312,320l10.344-10.344c3.123-3.124,3.123-8.188,0-11.312L203.312,288l10.344-10.344 c1.5-1.5,2.344-3.534,2.344-5.656v-48h32v152h16V224h16V420.688z M296,208h-96v-16h96V208z M328,160c0,8.837-7.163,16-16,16H184 c-8.837,0-16-7.163-16-16V32c0-8.837,7.163-16,16-16h128c8.837,0,16,7.163,16,16V160z"></path> </g> </g> <g> <g> <path d="M248,32c-17.673,0-32,14.327-32,32s14.327,32,32,32c17.673,0,32-14.327,32-32S265.673,32,248,32z M248,80 c-8.837,0-16-7.163-16-16s7.163-16,16-16c8.837,0,16,7.163,16,16S256.837,80,248,80z"></path> </g> </g> <g> <g> <rect x="248" y="392" width="16" height="16"></rect> </g> </g> <g> <g> <path d="M280,112h-64c-13.255,0-24,10.745-24,24s10.745,24,24,24h64c13.255,0,24-10.745,24-24S293.255,112,280,112z M280,144h-64 c-4.418,0-8-3.582-8-8s3.582-8,8-8h64c4.418,0,8,3.582,8,8S284.418,144,280,144z"></path> </g> </g> <g> <g> <rect x="152" y="392" width="16" height="16"></rect> </g> </g> <g> <g> <rect x="144" y="216" width="16" height="16"></rect> </g> </g> <g> <g> <path d="M141.416,304l-13.984-34.976c-1.217-3.037-4.16-5.026-7.432-5.024H94.864c-4.418-17.112-21.872-27.402-38.984-22.984 S28.478,262.888,32.896,280c4.418,17.112,21.872,27.402,38.984,22.984c11.272-2.91,20.074-11.712,22.984-22.984h19.72l12.8,32 l-12.8,32h-51.72c-4.449-17.072-21.896-27.305-38.968-22.855S-3.408,343.04,1.041,360.112C4.712,374.199,17.443,384.022,32,384 c14.547-0.055,27.227-9.915,30.864-24H120c3.272,0.003,6.215-1.987,7.432-5.024L141.416,320H168v-16H141.416z M64,288 c-8.837,0-16-7.163-16-16s7.163-16,16-16s16,7.163,16,16S72.837,288,64,288z M32,368c-8.837,0-16-7.163-16-16s7.163-16,16-16 s16,7.163,16,16S40.837,368,32,368z"></path> </g> </g> <g> <g> <path d="M478.959,439.888C475.288,425.801,462.557,415.978,448,416c-14.547,0.055-27.227,9.914-30.864,24H404.28l-29.6-44.44 c-1.489-2.232-3.997-3.568-6.68-3.56h-24v16h19.72l29.6,44.44c1.489,2.232,3.997,3.568,6.68,3.56h17.136 c4.449,17.072,21.896,27.305,38.968,22.855S483.408,456.96,478.959,439.888z M448,464c-8.837,0-16-7.163-16-16s7.163-16,16-16 s16,7.163,16,16S456.837,464,448,464z"></path> </g> </g> <g> <g> <path d="M478.959,167.888C475.288,153.801,462.557,143.978,448,144c-14.547,0.055-27.227,9.914-30.864,24H400 c-3.445-0.001-6.503,2.204-7.592,5.472L378.232,216H360v16h24c3.445,0.001,6.503-2.204,7.592-5.472L405.768,184h11.368 c4.449,17.072,21.896,27.305,38.967,22.855C473.175,202.406,483.408,184.96,478.959,167.888z M448,192c-8.837,0-16-7.163-16-16 s7.163-16,16-16s16,7.163,16,16S456.837,192,448,192z"></path> </g> </g> <g> <g> <rect x="312" y="392" width="16" height="16"></rect> </g> </g> <g> <g> <rect x="328" y="216" width="16" height="16"></rect> </g> </g> <g> <g> <path d="M478.959,343.888C475.288,329.801,462.557,319.978,448,320c-14.547,0.055-27.227,9.914-30.864,24h-51.72l-12.8-32l12.8-32 h19.72c4.418,17.112,21.872,27.402,38.984,22.984s27.402-21.872,22.984-38.984c-4.418-17.112-21.872-27.402-38.984-22.984 c-11.272,2.91-20.074,11.712-22.984,22.984H360c-3.272-0.003-6.215,1.987-7.432,5.024L338.584,304H312v16h26.584l13.984,34.976 c1.217,3.037,4.16,5.026,7.432,5.024h57.136c4.449,17.072,21.896,27.305,38.968,22.855S483.408,360.96,478.959,343.888z M416,256 c8.837,0,16,7.163,16,16s-7.163,16-16,16s-16-7.163-16-16S407.163,256,416,256z M448,368c-8.837,0-16-7.163-16-16s7.163-16,16-16 s16,7.163,16,16S456.837,368,448,368z"></path> </g> </g> <g> </g> <g> </g> <g> </g> <g> </g> <g> </g> <g> </g> <g> </g> <g> </g> <g> </g> <g> </g> <g> </g> <g> </g> <g> </g> <g> </g> <g> </g> </svg> 